# Blender 4.1.1
# www.blender.org
mtllib Background.mtl
o 平面
v -5.000000 -5.000000 -0.000000
v 5.000000 -5.000000 -0.000000
v -5.000000 5.000000 0.000000
v 5.000000 5.000000 0.000000
v -5.000000 4.090909 0.000000
v -5.000000 3.181818 0.000000
v -5.000000 2.272727 0.000000
v -5.000000 1.363636 0.000000
v -5.000000 0.454545 0.000000
v -5.000000 -0.454546 -0.000000
v -5.000000 -1.363636 -0.000000
v -5.000000 -2.272727 -0.000000
v -5.000000 -3.181818 -0.000000
v -5.000000 -4.090909 -0.000000
v 5.000000 -4.090909 -0.000000
v 5.000000 -3.181818 -0.000000
v 5.000000 -2.272727 -0.000000
v 5.000000 -1.363636 -0.000000
v 5.000000 -0.454545 -0.000000
v 5.000000 0.454546 0.000000
v 5.000000 1.363636 0.000000
v 5.000000 2.272727 0.000000
v 5.000000 3.181818 0.000000
v 5.000000 4.090909 0.000000
v -4.090909 -5.000000 -0.000000
v -3.181818 -5.000000 -0.000000
v -2.272727 -5.000000 -0.000000
v -1.363636 -5.000000 -0.000000
v -0.454545 -5.000000 -0.000000
v 0.454546 -5.000000 -0.000000
v 1.363636 -5.000000 -0.000000
v 2.272727 -5.000000 -0.000000
v 3.181818 -5.000000 -0.000000
v 4.090909 -5.000000 -0.000000
v 4.090909 5.000000 0.000000
v 3.181818 5.000000 0.000000
v 2.272727 5.000000 0.000000
v 1.363636 5.000000 0.000000
v 0.454545 5.000000 0.000000
v -0.454546 5.000000 0.000000
v -1.363636 5.000000 0.000000
v -2.272727 5.000000 0.000000
v -3.181818 5.000000 0.000000
v -4.090909 5.000000 0.000000
v 4.090909 -4.090909 -0.394661
v 3.181818 -4.090909 -0.394661
v 2.272727 -4.090909 -0.394661
v 1.363636 -4.090909 -0.394661
v 0.454545 -4.090909 -0.394661
v -0.454546 -4.090909 -0.394661
v -1.363636 -4.090909 -0.394661
v -2.272727 -4.090909 -0.394661
v -3.181818 -4.090909 -0.394661
v -4.090909 -4.090909 -0.394661
v 4.090909 -3.181818 -0.394661
v 3.181818 -3.181818 -0.721277
v 2.272727 -3.181818 -0.721277
v 1.363636 -3.181818 -0.721277
v 0.454545 -3.181818 -0.721277
v -0.454546 -3.181818 -0.721277
v -1.363636 -3.181818 -0.721277
v -2.272727 -3.181818 -0.721277
v -3.181818 -3.181818 -0.721277
v -4.090909 -3.181818 -0.394661
v 4.090909 -2.272727 -0.394661
v 3.181818 -2.272727 -0.721277
v 2.272727 -2.272727 -0.976446
v 1.363636 -2.272727 -0.976446
v 0.454545 -2.272727 -0.976446
v -0.454546 -2.272727 -0.976446
v -1.363636 -2.272727 -0.976446
v -2.272727 -2.272727 -0.976446
v -3.181818 -2.272727 -0.721277
v -4.090909 -2.272727 -0.394661
v 4.090909 -1.363636 -0.394661
v 3.181818 -1.363636 -0.721277
v 2.272727 -1.363636 -0.976446
v 1.363636 -1.363636 -1.165460
v 0.454545 -1.363636 -1.165460
v -0.454546 -1.363636 -1.165460
v -1.363636 -1.363636 -1.165460
v -2.272727 -1.363636 -0.976446
v -3.181818 -1.363636 -0.721277
v -4.090909 -1.363636 -0.394661
v 4.090909 -0.454545 -0.394661
v 3.181818 -0.454545 -0.721277
v 2.272727 -0.454545 -0.976446
v 1.363636 -0.454545 -1.165460
v 0.454545 -0.454545 -1.324422
v -0.454546 -0.454545 -1.324422
v -1.363636 -0.454545 -1.165460
v -2.272727 -0.454545 -0.976446
v -3.181818 -0.454545 -0.721277
v -4.090909 -0.454546 -0.394661
v 4.090909 0.454546 -0.394661
v 3.181818 0.454545 -0.721277
v 2.272727 0.454545 -0.976446
v 1.363636 0.454546 -1.165460
v 0.454545 0.454545 -1.324422
v -0.454546 0.454545 -1.324422
v -1.363636 0.454545 -1.165460
v -2.272727 0.454545 -0.976446
v -3.181818 0.454545 -0.721277
v -4.090909 0.454545 -0.394661
v 4.090909 1.363636 -0.394661
v 3.181818 1.363636 -0.721277
v 2.272727 1.363636 -0.976446
v 1.363636 1.363636 -1.165460
v 0.454545 1.363636 -1.165460
v -0.454546 1.363636 -1.165460
v -1.363636 1.363636 -1.165460
v -2.272727 1.363636 -0.976446
v -3.181818 1.363636 -0.721277
v -4.090909 1.363636 -0.394661
v 4.090909 2.272727 -0.394661
v 3.181818 2.272727 -0.721277
v 2.272727 2.272727 -0.976446
v 1.363636 2.272727 -0.976446
v 0.454545 2.272727 -0.976446
v -0.454546 2.272727 -0.976446
v -1.363636 2.272727 -0.976446
v -2.272727 2.272727 -0.976446
v -3.181818 2.272727 -0.721277
v -4.090909 2.272727 -0.394661
v 4.090909 3.181818 -0.394661
v 3.181818 3.181818 -0.721277
v 2.272727 3.181818 -0.721277
v 1.363636 3.181818 -0.721277
v 0.454545 3.181818 -0.721277
v -0.454546 3.181818 -0.721277
v -1.363636 3.181818 -0.721277
v -2.272727 3.181818 -0.721277
v -3.181818 3.181818 -0.721277
v -4.090909 3.181818 -0.394661
v 4.090909 4.090909 -0.394661
v 3.181818 4.090909 -0.394661
v 2.272727 4.090909 -0.394661
v 1.363636 4.090909 -0.394661
v 0.454545 4.090909 -0.394661
v -0.454546 4.090909 -0.394661
v -1.363636 4.090909 -0.394661
v -2.272727 4.090909 -0.394661
v -3.181818 4.090909 -0.394661
v -4.090909 4.090909 -0.394661
vn -0.3700 -0.3700 0.8522
vn -0.3700 0.3700 0.8522
vn -0.3982 -0.0000 0.9173
vn 0.3982 -0.0000 0.9173
vn -0.0000 -0.0000 1.0000
vn -0.0000 -0.3381 0.9411
vn -0.3203 -0.3203 0.8915
vn 0.3381 -0.0000 0.9411
vn -0.0000 -0.2702 0.9628
vn -0.2609 -0.2609 0.9295
vn -0.3381 -0.0000 0.9411
vn 0.2702 -0.0000 0.9628
vn -0.0000 -0.2036 0.9791
vn -0.1995 -0.1995 0.9594
vn -0.2702 -0.0000 0.9628
vn 0.2036 -0.0000 0.9791
vn -0.0000 -0.1722 0.9851
vn -0.1697 -0.1697 0.9708
vn -0.2036 -0.0000 0.9791
vn 0.1722 -0.0000 0.9851
vn -0.1722 -0.0000 0.9851
vn -0.0000 0.1722 0.9851
vn -0.1697 0.1697 0.9708
vn -0.0000 0.2036 0.9791
vn -0.1995 0.1995 0.9594
vn -0.0000 0.2702 0.9628
vn -0.2609 0.2609 0.9295
vn -0.0000 0.3381 0.9411
vn -0.3203 0.3203 0.8915
vn -0.0000 0.3982 0.9173
vn -0.0000 -0.3982 0.9173
vn 0.3203 -0.3203 0.8915
vn 0.2609 -0.2609 0.9295
vn 0.1995 -0.1995 0.9594
vn 0.1697 -0.1697 0.9708
vn 0.1697 0.1697 0.9708
vn 0.1995 0.1995 0.9594
vn 0.2609 0.2609 0.9295
vn 0.3203 0.3203 0.8915
vn 0.3700 0.3700 0.8522
vn 0.3700 -0.3700 0.8522
vt 1.000000 0.909091
vt 0.909091 1.000000
vt 0.909091 0.909091
vt 0.909091 0.000000
vt 1.000000 0.090909
vt 0.909091 0.090909
vt 0.909091 0.181818
vt 1.000000 0.181818
vt 0.909091 0.272727
vt 1.000000 0.272727
vt 0.909091 0.363636
vt 1.000000 0.363636
vt 0.909091 0.454545
vt 1.000000 0.454545
vt 0.909091 0.545455
vt 1.000000 0.545455
vt 0.909091 0.636364
vt 1.000000 0.636364
vt 0.909091 0.727273
vt 1.000000 0.727273
vt 0.909091 0.818182
vt 1.000000 0.818182
vt 0.090909 0.818182
vt 0.000000 0.909091
vt 0.000000 0.818182
vt 0.181818 0.909091
vt 0.090909 0.909091
vt 0.272727 0.818182
vt 0.181818 0.818182
vt 0.363636 0.818182
vt 0.272727 0.909091
vt 0.454545 0.818182
vt 0.363636 0.909091
vt 0.545455 0.818182
vt 0.454545 0.909091
vt 0.636364 0.818182
vt 0.545455 0.909091
vt 0.727273 0.818182
vt 0.636364 0.909091
vt 0.818182 0.818182
vt 0.727273 0.909091
vt 0.818182 0.909091
vt 0.090909 0.727273
vt 0.000000 0.727273
vt 0.181818 0.727273
vt 0.363636 0.727273
vt 0.272727 0.727273
vt 0.454545 0.727273
vt 0.545455 0.727273
vt 0.636364 0.727273
vt 0.727273 0.727273
vt 0.818182 0.727273
vt 0.090909 0.636364
vt 0.000000 0.636364
vt 0.181818 0.636364
vt 0.272727 0.636364
vt 0.454545 0.636364
vt 0.363636 0.636364
vt 0.545455 0.636364
vt 0.636364 0.636364
vt 0.727273 0.636364
vt 0.818182 0.636364
vt 0.090909 0.545454
vt 0.000000 0.545455
vt 0.181818 0.545455
vt 0.272727 0.545455
vt 0.363636 0.545455
vt 0.545455 0.545455
vt 0.454545 0.545455
vt 0.636364 0.545455
vt 0.727273 0.545455
vt 0.818182 0.545455
vt 0.090909 0.454545
vt 0.000000 0.454545
vt 0.181818 0.454545
vt 0.272727 0.454545
vt 0.363636 0.454545
vt 0.454545 0.454545
vt 0.636364 0.454545
vt 0.545455 0.454545
vt 0.727273 0.454545
vt 0.818182 0.454545
vt 0.090909 0.363636
vt 0.000000 0.363636
vt 0.181818 0.363636
vt 0.272727 0.363636
vt 0.363636 0.363636
vt 0.454545 0.363636
vt 0.545455 0.363636
vt 0.727273 0.363636
vt 0.636364 0.363636
vt 0.818182 0.363636
vt 0.090909 0.272727
vt 0.000000 0.272727
vt 0.181818 0.272727
vt 0.272727 0.272727
vt 0.363636 0.272727
vt 0.454545 0.272727
vt 0.545455 0.272727
vt 0.636364 0.272727
vt 0.818182 0.272727
vt 0.727273 0.272727
vt 0.090909 0.181818
vt 0.000000 0.181818
vt 0.181818 0.181818
vt 0.272727 0.181818
vt 0.363636 0.181818
vt 0.454545 0.181818
vt 0.545455 0.181818
vt 0.636364 0.181818
vt 0.727273 0.181818
vt 0.818182 0.181818
vt 0.090909 0.090909
vt 0.000000 0.090909
vt 0.181818 0.090909
vt 0.272727 0.090909
vt 0.363636 0.090909
vt 0.454545 0.090909
vt 0.545455 0.090909
vt 0.636364 0.090909
vt 0.727273 0.090909
vt 0.818182 0.090909
vt 0.090909 0.000000
vt 0.000000 0.000000
vt 0.181818 0.000000
vt 0.272727 0.000000
vt 0.454545 0.000000
vt 0.363636 0.000000
vt 0.545455 0.000000
vt 0.636364 0.000000
vt 0.727273 0.000000
vt 0.818182 0.000000
vt 0.090909 1.000000
vt 0.000000 1.000000
vt 0.181818 1.000000
vt 0.272727 1.000000
vt 0.363636 1.000000
vt 0.454545 1.000000
vt 0.545455 1.000000
vt 0.636364 1.000000
vt 0.727273 1.000000
vt 0.818182 1.000000
vt 1.000000 1.000000
vt 1.000000 0.000000
s 0
usemtl マテリアル
f 24/1/1 35/2/1 135/3/1
f 34/4/2 15/5/2 45/6/2
f 15/5/3 55/7/3 45/6/3
f 16/8/3 65/9/3 55/7/3
f 17/10/3 75/11/3 65/9/3
f 18/12/3 85/13/3 75/11/3
f 19/14/3 95/15/3 85/13/3
f 20/16/3 105/17/3 95/15/3
f 21/18/3 115/19/3 105/17/3
f 22/20/3 125/21/3 115/19/3
f 23/22/3 135/3/3 125/21/3
f 134/23/4 5/24/4 6/25/4
f 134/23/5 143/26/5 144/27/5
f 132/28/6 143/26/6 133/29/6
f 131/30/6 142/31/6 132/28/6
f 130/32/6 141/33/6 131/30/6
f 129/34/6 140/35/6 130/32/6
f 128/36/6 139/37/6 129/34/6
f 127/38/6 138/39/6 128/36/6
f 126/40/6 137/41/6 127/38/6
f 125/21/7 136/42/7 126/40/7
f 124/43/4 6/25/4 7/44/4
f 123/45/8 134/23/8 124/43/8
f 123/45/5 132/28/5 133/29/5
f 121/46/9 132/28/9 122/47/9
f 120/48/9 131/30/9 121/46/9
f 119/49/9 130/32/9 120/48/9
f 118/50/9 129/34/9 119/49/9
f 117/51/9 128/36/9 118/50/9
f 116/52/10 127/38/10 117/51/10
f 115/19/11 126/40/11 116/52/11
f 114/53/4 7/44/4 8/54/4
f 113/55/8 124/43/8 114/53/8
f 112/56/12 123/45/12 113/55/12
f 112/56/5 121/46/5 122/47/5
f 110/57/13 121/46/13 111/58/13
f 109/59/13 120/48/13 110/57/13
f 108/60/13 119/49/13 109/59/13
f 107/61/14 118/50/14 108/60/14
f 106/62/15 117/51/15 107/61/15
f 105/17/11 116/52/11 106/62/11
f 104/63/4 8/54/4 9/64/4
f 103/65/8 114/53/8 104/63/8
f 102/66/12 113/55/12 103/65/12
f 101/67/16 112/56/16 102/66/16
f 101/67/5 110/57/5 111/58/5
f 99/68/17 110/57/17 100/69/17
f 98/70/18 109/59/18 99/68/18
f 97/71/19 108/60/19 98/70/19
f 96/72/15 107/61/15 97/71/15
f 95/15/11 106/62/11 96/72/11
f 94/73/4 9/64/4 10/74/4
f 93/75/8 104/63/8 94/73/8
f 92/76/12 103/65/12 93/75/12
f 91/77/16 102/66/16 92/76/16
f 90/78/20 101/67/20 91/77/20
f 90/78/5 99/68/5 100/69/5
f 88/79/21 99/68/21 89/80/21
f 87/81/19 98/70/19 88/79/19
f 86/82/15 97/71/15 87/81/15
f 85/13/11 96/72/11 86/82/11
f 84/83/4 10/74/4 11/84/4
f 83/85/8 94/73/8 84/83/8
f 82/86/12 93/75/12 83/85/12
f 81/87/16 92/76/16 82/86/16
f 80/88/5 91/77/5 81/87/5
f 80/88/22 89/80/22 90/78/22
f 79/89/23 88/79/23 89/80/23
f 77/90/19 88/79/19 78/91/19
f 76/92/15 87/81/15 77/90/15
f 75/11/11 86/82/11 76/92/11
f 74/93/4 11/84/4 12/94/4
f 73/95/8 84/83/8 74/93/8
f 72/96/12 83/85/12 73/95/12
f 71/97/5 82/86/5 72/96/5
f 70/98/24 81/87/24 71/97/24
f 69/99/24 80/88/24 70/98/24
f 68/100/24 79/89/24 69/99/24
f 68/100/25 77/90/25 78/91/25
f 66/101/15 77/90/15 67/102/15
f 65/9/11 76/92/11 66/101/11
f 64/103/4 12/94/4 13/104/4
f 63/105/8 74/93/8 64/103/8
f 62/106/5 73/95/5 63/105/5
f 61/107/26 72/96/26 62/106/26
f 60/108/26 71/97/26 61/107/26
f 59/109/26 70/98/26 60/108/26
f 58/110/26 69/99/26 59/109/26
f 57/111/26 68/100/26 58/110/26
f 57/111/27 66/101/27 67/102/27
f 55/7/11 66/101/11 56/112/11
f 54/113/4 13/104/4 14/114/4
f 53/115/5 64/103/5 54/113/5
f 52/116/28 63/105/28 53/115/28
f 51/117/28 62/106/28 52/116/28
f 50/118/28 61/107/28 51/117/28
f 49/119/28 60/108/28 50/118/28
f 48/120/28 59/109/28 49/119/28
f 47/121/28 58/110/28 48/120/28
f 46/122/28 57/111/28 47/121/28
f 46/122/29 55/7/29 56/112/29
f 25/123/5 14/114/5 1/124/5
f 26/125/30 54/113/30 25/123/30
f 27/126/30 53/115/30 26/125/30
f 27/126/30 51/117/30 52/116/30
f 29/127/30 51/117/30 28/128/30
f 30/129/30 50/118/30 29/127/30
f 31/130/30 49/119/30 30/129/30
f 31/130/30 47/121/30 48/120/30
f 32/131/30 46/122/30 47/121/30
f 34/4/30 46/122/30 33/132/30
f 5/24/5 44/133/5 3/134/5
f 143/26/31 44/133/31 144/27/31
f 142/31/31 43/135/31 143/26/31
f 141/33/31 42/136/31 142/31/31
f 140/35/31 41/137/31 141/33/31
f 139/37/31 40/138/31 140/35/31
f 138/39/31 39/139/31 139/37/31
f 137/41/31 38/140/31 138/39/31
f 136/42/31 37/141/31 137/41/31
f 135/3/31 36/142/31 136/42/31
f 24/1/5 4/143/5 35/2/5
f 34/4/5 2/144/5 15/5/5
f 15/5/3 16/8/3 55/7/3
f 16/8/3 17/10/3 65/9/3
f 17/10/3 18/12/3 75/11/3
f 18/12/3 19/14/3 85/13/3
f 19/14/3 20/16/3 95/15/3
f 20/16/3 21/18/3 105/17/3
f 21/18/3 22/20/3 115/19/3
f 22/20/3 23/22/3 125/21/3
f 23/22/3 24/1/3 135/3/3
f 134/23/4 144/27/4 5/24/4
f 134/23/32 133/29/32 143/26/32
f 132/28/6 142/31/6 143/26/6
f 131/30/6 141/33/6 142/31/6
f 130/32/6 140/35/6 141/33/6
f 129/34/6 139/37/6 140/35/6
f 128/36/6 138/39/6 139/37/6
f 127/38/6 137/41/6 138/39/6
f 126/40/6 136/42/6 137/41/6
f 125/21/5 135/3/5 136/42/5
f 124/43/4 134/23/4 6/25/4
f 123/45/8 133/29/8 134/23/8
f 123/45/33 122/47/33 132/28/33
f 121/46/9 131/30/9 132/28/9
f 120/48/9 130/32/9 131/30/9
f 119/49/9 129/34/9 130/32/9
f 118/50/9 128/36/9 129/34/9
f 117/51/9 127/38/9 128/36/9
f 116/52/5 126/40/5 127/38/5
f 115/19/11 125/21/11 126/40/11
f 114/53/4 124/43/4 7/44/4
f 113/55/8 123/45/8 124/43/8
f 112/56/12 122/47/12 123/45/12
f 112/56/34 111/58/34 121/46/34
f 110/57/13 120/48/13 121/46/13
f 109/59/13 119/49/13 120/48/13
f 108/60/13 118/50/13 119/49/13
f 107/61/5 117/51/5 118/50/5
f 106/62/15 116/52/15 117/51/15
f 105/17/11 115/19/11 116/52/11
f 104/63/4 114/53/4 8/54/4
f 103/65/8 113/55/8 114/53/8
f 102/66/12 112/56/12 113/55/12
f 101/67/16 111/58/16 112/56/16
f 101/67/35 100/69/35 110/57/35
f 99/68/17 109/59/17 110/57/17
f 98/70/5 108/60/5 109/59/5
f 97/71/19 107/61/19 108/60/19
f 96/72/15 106/62/15 107/61/15
f 95/15/11 105/17/11 106/62/11
f 94/73/4 104/63/4 9/64/4
f 93/75/8 103/65/8 104/63/8
f 92/76/12 102/66/12 103/65/12
f 91/77/16 101/67/16 102/66/16
f 90/78/20 100/69/20 101/67/20
f 90/78/5 89/80/5 99/68/5
f 88/79/21 98/70/21 99/68/21
f 87/81/19 97/71/19 98/70/19
f 86/82/15 96/72/15 97/71/15
f 85/13/11 95/15/11 96/72/11
f 84/83/4 94/73/4 10/74/4
f 83/85/8 93/75/8 94/73/8
f 82/86/12 92/76/12 93/75/12
f 81/87/16 91/77/16 92/76/16
f 80/88/36 90/78/36 91/77/36
f 80/88/22 79/89/22 89/80/22
f 79/89/5 78/91/5 88/79/5
f 77/90/19 87/81/19 88/79/19
f 76/92/15 86/82/15 87/81/15
f 75/11/11 85/13/11 86/82/11
f 74/93/4 84/83/4 11/84/4
f 73/95/8 83/85/8 84/83/8
f 72/96/12 82/86/12 83/85/12
f 71/97/37 81/87/37 82/86/37
f 70/98/24 80/88/24 81/87/24
f 69/99/24 79/89/24 80/88/24
f 68/100/24 78/91/24 79/89/24
f 68/100/5 67/102/5 77/90/5
f 66/101/15 76/92/15 77/90/15
f 65/9/11 75/11/11 76/92/11
f 64/103/4 74/93/4 12/94/4
f 63/105/8 73/95/8 74/93/8
f 62/106/38 72/96/38 73/95/38
f 61/107/26 71/97/26 72/96/26
f 60/108/26 70/98/26 71/97/26
f 59/109/26 69/99/26 70/98/26
f 58/110/26 68/100/26 69/99/26
f 57/111/26 67/102/26 68/100/26
f 57/111/5 56/112/5 66/101/5
f 55/7/11 65/9/11 66/101/11
f 54/113/4 64/103/4 13/104/4
f 53/115/39 63/105/39 64/103/39
f 52/116/28 62/106/28 63/105/28
f 51/117/28 61/107/28 62/106/28
f 50/118/28 60/108/28 61/107/28
f 49/119/28 59/109/28 60/108/28
f 48/120/28 58/110/28 59/109/28
f 47/121/28 57/111/28 58/110/28
f 46/122/28 56/112/28 57/111/28
f 46/122/5 45/6/5 55/7/5
f 25/123/40 54/113/40 14/114/40
f 26/125/30 53/115/30 54/113/30
f 27/126/30 52/116/30 53/115/30
f 27/126/30 28/128/30 51/117/30
f 29/127/30 50/118/30 51/117/30
f 30/129/30 49/119/30 50/118/30
f 31/130/30 48/120/30 49/119/30
f 31/130/30 32/131/30 47/121/30
f 32/131/30 33/132/30 46/122/30
f 34/4/30 45/6/30 46/122/30
f 5/24/41 144/27/41 44/133/41
f 143/26/31 43/135/31 44/133/31
f 142/31/31 42/136/31 43/135/31
f 141/33/31 41/137/31 42/136/31
f 140/35/31 40/138/31 41/137/31
f 139/37/31 39/139/31 40/138/31
f 138/39/31 38/140/31 39/139/31
f 137/41/31 37/141/31 38/140/31
f 136/42/31 36/142/31 37/141/31
f 135/3/31 35/2/31 36/142/31
